<svg viewBox="0 0 2607 516" version="1.1" xmlns="http://www.w3.org/2000/svg" xmlns:xlink="http://www.w3.org/1999/xlink" xml:space="preserve" style="fill-rule:evenodd;clip-rule:evenodd;stroke-linejoin:round;stroke-miterlimit:2;height:100%"><g transform="matrix(3.125,0,0,3.125,0,0)"><g transform="matrix(1,0,0,1,207.855,141.988)"><path d="M7.276,-109.976L100.326,-109.976L100.326,-91.212L26.039,-91.212L26.039,-64.331L79.725,-64.331L79.725,-45.644L26.039,-45.644L26.039,-20.984L7.276,-20.984L7.276,-109.976ZM7.276,-18.38L26.039,-18.38L26.039,-14.015L7.276,-14.015L7.276,-18.38ZM7.276,-11.411L15.394,-11.411L15.394,-6.969L7.276,-6.969L7.276,-11.411ZM18.304,-11.411L26.039,-11.411L26.039,-6.969L18.304,-6.969L18.304,-11.411ZM7.276,-4.442L15.394,-4.442L15.394,0L7.276,0L7.276,-4.442ZM18.304,-4.442L26.039,-4.442L26.039,0L18.304,0L18.304,-4.442Z" style="fill:rgb(0,128,255);fill-rule:nonzero"></path><path d="M115.26,-0.153C144.72,-79.138 162.257,-126.416 167.874,-141.988L168.257,-141.988C172.392,-130.296 189.956,-83.145 220.947,-0.536L220.947,-0.153L201.341,-0.153L168.257,-89.298L167.874,-89.298L134.866,-0.153L115.26,-0.153Z" style="fill:rgb(0,128,255);fill-rule:nonzero"></path><path d="M238.255,-111.048L243.386,-104.844C273.867,-69.922 290.665,-50.903 293.779,-47.789L346.01,-107.372C347.235,-108.648 348.231,-110.001 348.997,-111.431L348.997,0L330.233,0L330.233,-59.2C328.242,-57.26 316.959,-44.649 296.383,-21.367C294.698,-19.376 293.702,-18.38 293.396,-18.38L257.018,-59.2L256.635,-59.659L256.635,-20.601L238.255,-20.601L238.255,-111.048ZM248.517,-6.586L248.517,-11.411L256.635,-11.411L256.635,-6.586L248.517,-6.586ZM248.517,-4.748L256.635,-4.748L256.635,0L248.517,0L248.517,-4.748ZM245.99,-4.748L245.99,0L238.255,0L238.255,-4.748L245.99,-4.748ZM248.517,-13.632L248.517,-18.38L256.635,-18.38L256.635,-13.632L248.517,-13.632ZM238.255,-11.411L245.99,-11.411L245.99,-6.586L238.255,-6.586L238.255,-11.411ZM238.255,-18.38L245.99,-18.38L245.99,-13.632L238.255,-13.632L238.255,-18.38Z" style="fill:rgb(0,128,255);fill-rule:nonzero"></path><path d="M420.45,-109.976C438.473,-109.976 453.509,-101.909 465.558,-85.775C471.889,-75.921 475.055,-65.786 475.055,-55.371C475.055,-40.769 469.796,-27.8 459.279,-16.466C448.046,-5.489 434.976,0 420.067,0L419.301,0C400.206,0 384.583,-8.909 372.431,-26.728C367.53,-36.276 365.079,-44.598 365.079,-51.695L365.079,-56.826C365.079,-67.905 368.858,-78.525 376.414,-88.685C388.106,-102.879 402.785,-109.976 420.45,-109.976ZM383.383,-56.443L383.383,-53.533C383.383,-44.802 386.932,-36.607 394.028,-28.949C401.636,-21.852 410.188,-18.304 419.684,-18.304C434.542,-18.304 445.8,-25.528 453.458,-39.977C455.654,-45.951 456.751,-50.827 456.751,-54.605C456.751,-68.696 450.012,-79.699 436.533,-87.613C431.019,-90.319 425.53,-91.672 420.067,-91.672C406.333,-91.672 395.586,-85.315 387.825,-72.602C384.864,-67.139 383.383,-61.753 383.383,-56.443Z" style="fill:rgb(0,128,255);fill-rule:nonzero"></path><path d="M489.606,-109.976L507.91,-109.976L507.91,-105.227L489.606,-105.227L489.606,-109.976ZM489.606,-103.006L497.341,-103.006L497.341,-98.641L489.606,-98.641L489.606,-103.006ZM500.251,-103.006L507.91,-103.006L507.91,-98.641L500.251,-98.641L500.251,-103.006ZM489.606,-96.037L507.91,-96.037L507.91,-91.672L489.606,-91.672L489.606,-96.037ZM507.91,-89.451L507.91,0L489.606,0L489.606,-89.451L507.91,-89.451Z" style="fill:rgb(0,128,255);fill-rule:nonzero"></path><path d="M523.839,-109.976L569.484,-109.976C588.426,-109.976 603.973,-102.011 616.124,-86.081C622.761,-76.534 626.08,-66.22 626.08,-55.141L626.08,-54.835C626.08,-34.616 616.277,-18.534 596.672,-6.586C587.737,-2.195 578.674,0 569.484,0L523.839,0L523.839,-109.976ZM542.603,-91.212L542.603,-18.763L568.718,-18.763C585.822,-18.763 598.076,-26.983 605.479,-43.424C606.704,-47.661 607.317,-51.695 607.317,-55.524C607.317,-67.88 601.19,-78.065 588.936,-86.081C582.963,-89.502 576.223,-91.212 568.718,-91.212L542.603,-91.212Z" style="fill:rgb(0,128,255);fill-rule:nonzero"></path></g><g transform="matrix(1,0,0,1,-55.031,-200.605)"><path d="M197.365,263.927C196.81,264.095 196.213,264.491 195.706,264.398C188.889,263.15 182.755,264.63 177.385,269.318C177.007,269.177 176.63,269.035 176.252,268.894C176.252,265.695 176.036,262.478 176.318,259.304C176.559,256.58 175.444,254.965 173.26,253.714C158.426,245.213 143.632,236.643 128.721,228.281C127.44,227.563 125.051,227.566 123.773,228.288C109.128,236.568 94.634,245.114 80.004,253.421C77.552,254.813 76.522,256.305 76.54,259.178C76.644,276.19 76.477,293.204 76.654,310.215C76.671,311.829 78.043,314.089 79.453,314.926C94.167,323.659 108.99,332.208 123.879,340.64C125.081,341.321 127.327,341.348 128.521,340.674C143.545,332.192 158.437,323.476 173.44,314.958C175.682,313.685 176.434,312.181 176.318,309.725C176.148,306.113 176.274,302.488 176.274,298.101C177.884,298.905 178.894,299.625 180.017,299.933C184.392,301.13 188.764,302.83 193.214,303.106C196.588,303.316 197.567,304.109 197.403,307.281C197.096,313.206 198.884,320.221 196.281,324.768C193.706,329.265 186.85,331.386 181.758,334.353C164.483,344.421 147.12,354.337 129.894,364.488C127.263,366.038 125.35,366.065 122.754,364.546C101.486,352.095 80.203,339.668 58.759,327.526C55.522,325.693 55.171,323.466 55.175,320.456C55.207,297.043 55.424,273.626 55.034,250.219C54.947,245.01 56.732,242.55 60.968,240.149C81.14,228.714 101.173,217.029 121.161,205.274C124.689,203.199 127.579,203.083 131.155,205.187C152.012,217.455 172.955,229.579 193.933,241.641C196.531,243.135 197.612,244.818 197.439,247.881C197.136,253.245 197.306,258.635 197.278,264.015L197.365,263.927Z" style="fill:rgb(0,128,255);fill-rule:nonzero"></path><path d="M197.278,264.013C200.515,260.091 203.81,256.215 206.898,252.179C207.212,251.769 206.354,250.367 205.912,249.489C202.117,241.959 204.982,233.036 212.211,229.953C220.259,226.521 228.833,229.966 231.582,237.736C234.456,245.861 230.259,254.644 221.962,256.528C218.051,257.416 215.891,259.397 214.205,262.644C213.272,264.442 212.068,266.104 210.929,267.788C208.221,271.792 206.275,275.436 207.366,281.039C208.987,289.365 204.055,296.65 197.124,299.196C189.77,301.898 182.136,299.589 177.474,293.06C176.326,291.452 175.025,289.512 174.943,287.674C174.77,283.753 172.5,282.306 169.391,280.818C163.896,278.187 158.629,275.081 152.937,271.995C148.47,276.137 143.013,277.919 136.812,278.048C133.097,278.125 126.894,291.532 129.041,294.461C132,298.498 133.139,302.933 132.981,307.932C132.73,315.852 127.084,323.699 119.294,326.402C112.176,328.872 101.825,325.679 97.183,319.697C91.683,312.61 91.342,304.922 95.223,297.248C98.952,289.874 105.469,286.492 113.763,286.646C115.063,286.67 116.364,286.649 117.673,286.649C118.512,284.968 119.309,283.305 120.162,281.671C122.856,276.515 125.887,272.14 121.862,265.45C118.012,259.049 120.482,251.657 125.733,246.318C131.08,240.881 137.85,238.868 145.305,241.729C152.539,244.505 157.136,249.759 157.551,257.655C157.738,261.217 158.972,262.847 162.162,264.208C166.805,266.189 171.084,269.009 175.643,271.212C176.774,271.759 178.812,271.883 179.705,271.221C183.884,268.124 188.461,266.664 193.566,267.222C196.301,267.52 197.309,266.42 197.366,263.926C197.365,263.927 197.278,264.013 197.278,264.013Z" style="fill:rgb(0,128,255);fill-rule:nonzero"></path></g></g></svg>