<svg xmlns="http://www.w3.org/2000/svg" width="24" height="24" viewBox="0 0 24 24" fill="none" stroke="#0080ff" stroke-width="2" stroke-linecap="round" stroke-linejoin="round" class="tabler-icon tabler-icon-brand-google-analytics" style="width:3.75rem;height:3.75rem"><path d="M10 9m0 1.105a1.105 1.105 0 0 1 1.105 -1.105h1.79a1.105 1.105 0 0 1 1.105 1.105v9.79a1.105 1.105 0 0 1 -1.105 1.105h-1.79a1.105 1.105 0 0 1 -1.105 -1.105z"></path><path d="M17 3m0 1.105a1.105 1.105 0 0 1 1.105 -1.105h1.79a1.105 1.105 0 0 1 1.105 1.105v15.79a1.105 1.105 0 0 1 -1.105 1.105h-1.79a1.105 1.105 0 0 1 -1.105 -1.105z"></path><path d="M5 19m-2 0a2 2 0 1 0 4 0a2 2 0 1 0 -4 0"></path></svg>